<?xml version="1.0" encoding="UTF-8" standalone="no"?>
<!-- Created with Inkscape (http://www.inkscape.org/) -->

<svg
   width="209.47737mm"
   height="209.47737mm"
   viewBox="0 0 209.47737 209.47737"
   version="1.1"
   id="svg5"
   xml:space="preserve"
   sodipodi:docname="fondo01.svg"
   inkscape:version="1.2.2 (b0a8486541, 2022-12-01)"
   xmlns:inkscape="http://www.inkscape.org/namespaces/inkscape"
   xmlns:sodipodi="http://sodipodi.sourceforge.net/DTD/sodipodi-0.dtd"
   xmlns="http://www.w3.org/2000/svg"
   xmlns:svg="http://www.w3.org/2000/svg"><sodipodi:namedview
     id="namedview7"
     pagecolor="#ffffff"
     bordercolor="#000000"
     borderopacity="0.25"
     inkscape:showpageshadow="2"
     inkscape:pageopacity="0.0"
     inkscape:pagecheckerboard="0"
     inkscape:deskcolor="#d1d1d1"
     inkscape:document-units="mm"
     showgrid="false"
     inkscape:zoom="0.77593294"
     inkscape:cx="154.00815"
     inkscape:cy="457.51376"
     inkscape:window-width="1856"
     inkscape:window-height="1015"
     inkscape:window-x="1920"
     inkscape:window-y="0"
     inkscape:window-maximized="1"
     inkscape:current-layer="layer1" /><defs
     id="defs2" /><g
     inkscape:label="Capa 1"
     inkscape:groupmode="layer"
     id="layer1"
     transform="translate(-0.14063457,-0.66528332)"><rect
       style="fill:none;stroke-width:0.264583"
       id="rect450"
       width="209.47737"
       height="209.47737"
       x="0.14063457"
       y="0.66528332"
       sodipodi:insensitive="true" /><g
       id="g396"
       transform="translate(0.33649193,1.2083573)"><path
         style="fill:#000000;stroke-width:0.277679"
         d="M 94.165945,206.97961 C 61.124872,203.63979 32.290959,185.44006 15.254635,157.17144 5.5670822,141.09675 0.63568649,123.07247 0.63568649,103.73907 0.63568649,87.313211 3.9707683,72.650804 10.998286,58.180761 25.918111,27.46 55.518305,5.8841452 89.323397,1.0888492 c 9.73034,-1.38025982 20.708523,-1.38025982 30.438853,0 30.6913,4.3536014 57.94491,22.4633118 74.06876,49.2178588 9.68755,16.074695 14.61896,34.09898 14.61896,53.432362 0,16.42587 -3.3351,31.08827 -10.36261,45.55831 -14.91982,30.72077 -44.52002,52.29662 -78.32511,57.09193 -7.48937,1.06237 -18.42993,1.31468 -25.596305,0.5903 z m 21.860625,-2.23274 c 31.21207,-3.75672 58.58696,-21.07812 75.08228,-47.50812 2.79263,-4.47457 6.85935,-12.71155 8.73555,-17.69354 5.18064,-13.75649 7.45233,-28.92083 6.39103,-42.662116 C 205.18571,83.292106 201.8234,71.012396 195.82905,58.877372 190.54142,48.173043 184.26119,39.481161 175.89307,31.285878 159.67228,15.400085 138.91085,5.5277202 115.74985,2.686883 c -5.55149,-0.6809259 -16.862558,-0.6809259 -22.414052,0 -28.969865,3.5533297 -54.229909,18.21137 -71.142587,41.283028 -6.72247,9.170554 -12.4403162,20.907167 -15.6110491,32.043715 -5.3027369,18.624732 -5.3027369,36.826164 0,55.450894 3.1707329,11.13655 8.8885791,22.87317 15.6110491,32.04372 9.547213,13.02396 21.975792,23.5768 36.239337,30.77002 12.491011,6.29933 25.20427,9.79133 40.022509,10.99311 2.912583,0.23622 14.001283,-0.0948 17.571513,-0.5245 z m -16.77828,-5.05186 c -1.209281,-0.27163 -2.836099,-2.01532 -3.277893,-3.51339 -0.748298,-2.53734 -0.333921,-6.28998 0.9812,-8.88578 1.415892,-2.79472 4.317533,-4.86609 7.242373,-5.17006 1.67445,-0.17403 3.53111,0.29203 3.53111,0.88636 0,0.9857 -0.29324,1.17168 -1.64158,1.04123 -2.57897,-0.24954 -4.82334,1.13044 -6.00928,3.69488 -0.888362,1.92096 -0.841537,2.18648 0.26921,1.52656 2.90738,-1.72735 6.40137,-0.51271 7.06136,2.45479 0.86103,3.87137 -2.04322,7.77894 -5.94927,8.00461 -0.88929,0.0514 -1.882539,0.0338 -2.20723,-0.0392 z m 3.43589,-1.93046 c 1.85826,-1.31064 2.20747,-5.76567 0.54391,-6.93898 -0.86841,-0.6125 -2.1905,-0.52869 -3.279346,0.20787 -0.790386,0.53466 -0.954022,0.82764 -1.026643,1.83803 -0.121272,1.68724 0.414249,3.94466 1.113619,4.6943 0.68732,0.7367 1.77052,0.81801 2.64846,0.19878 z m -50.733942,-7.94377 c -0.465619,-0.13624 -1.337274,-0.67536 -1.937028,-1.19805 -1.056008,-0.92032 -1.074961,-0.96762 -0.600145,-1.49736 0.486306,-0.54255 0.500809,-0.54167 1.776385,0.1086 2.934702,1.4961 5.964663,0.10854 6.36753,-2.91594 0.384565,-2.88714 -1.741235,-4.38331 -4.594511,-3.2337 -1.262848,0.50881 -2.369573,0.16368 -2.133831,-0.66543 0.0736,-0.25886 0.344398,-1.91264 0.601756,-3.67507 0.258286,-1.76877 0.648455,-3.4129 0.87088,-3.66979 0.327139,-0.37782 1.053883,-0.48269 3.861904,-0.55729 2.825498,-0.0751 3.520046,-0.17618 3.792587,-0.55216 0.228588,-0.31533 0.577426,-0.41332 1.107872,-0.31122 0.722677,0.13912 0.76179,0.21579 0.587418,1.15173 -0.43719,2.34667 -1.498361,2.97759 -4.54708,2.70348 -1.151402,-0.10353 -2.354676,-0.25291 -2.673959,-0.33198 -0.527515,-0.13063 -0.619944,0.0552 -1.012313,2.03529 -0.237486,1.19849 -0.40008,2.21206 -0.361308,2.25238 0.03881,0.0403 0.552898,-0.12965 1.142505,-0.37772 1.390519,-0.58503 3.741499,-0.41047 4.766313,0.35391 1.407748,1.04999 1.994721,2.24588 1.994721,4.064 0,4.47239 -4.508811,7.63332 -9.009696,6.31632 z m 89.535722,-0.95416 c -0.99228,-1.20395 3.5563,-9.66938 6.87862,-12.80186 0.4774,-0.45013 0.868,-0.92033 0.868,-1.04493 0,-0.27427 -4.12741,-0.2724 -5.67269,0.002 -0.90594,0.1612 -1.20734,0.38578 -1.66031,1.23708 -0.4409,0.82864 -0.71452,1.04029 -1.34564,1.04089 -0.79219,8.4e-4 -0.79219,8.4e-4 -0.68085,-1.98335 0.0983,-1.75127 0.20116,-2.06191 0.8768,-2.64712 0.89832,-0.77808 2.70693,-0.87291 6.49161,-0.34037 2.02955,0.28557 2.4146,0.26736 3.29608,-0.15591 0.9657,-0.46372 1.01642,-0.46079 1.56405,0.0906 0.56598,0.56993 0.56598,0.56993 -0.0443,1.34051 -0.33566,0.42381 -1.4723,2.06019 -2.52586,3.6364 -2.43918,3.64917 -3.32165,5.75791 -4.89345,11.69332 -0.13567,0.51228 -2.71974,0.45663 -3.15203,-0.0679 z m 9.13194,-19.36601 c -0.56624,-0.49452 -0.88753,-0.53634 -2.91486,-0.37942 -2.9598,0.2291 -3.43986,0.079 -4.33241,-1.35481 -0.40849,-0.65618 -1.1044,-1.54197 -1.5465,-1.96841 -0.8038,-0.77535 -0.8038,-0.77535 -1.88612,0.22549 -0.59527,0.55047 -2.14075,1.62028 -3.4344,2.37737 -2.28885,1.33951 -2.41202,1.37652 -4.58068,1.37671 -1.84515,1.6e-4 -2.4768,-0.12436 -3.67129,-0.72375 -0.79347,-0.39816 -1.56945,-0.96241 -1.72437,-1.2539 -0.36132,-0.67984 -0.30837,-0.67196 1.36735,0.20349 0.97414,0.50892 1.9946,0.77599 3.33361,0.87246 1.92926,0.139 1.93035,0.13867 4.64024,-1.40844 1.49079,-0.85112 3.07624,-1.93338 3.52325,-2.40502 0.44701,-0.47165 1.02907,-0.85753 1.29348,-0.85753 0.2644,0 1.24051,0.86085 2.16913,1.913 1.62999,1.84679 1.74298,1.91945 3.26512,2.09959 0.95584,0.11312 2.09029,0.054 2.88098,-0.15 1.2867,-0.33207 1.3153,-0.3247 2.12445,0.54752 0.45111,0.48627 0.95701,0.88413 1.12424,0.88413 0.16723,0 0.30406,0.12539 0.30406,0.27864 0,0.48398 -1.27243,0.30178 -1.93528,-0.27712 z m 4.21819,0.37122 c -0.50256,-0.20419 -0.42144,-0.94895 0.20754,-1.90528 0.30238,-0.45977 0.55061,-0.92787 0.55161,-1.04023 0.004,-0.42431 -2.90194,-1.66202 -4.9374,-2.10313 -1.16438,-0.25233 -2.89532,-0.43361 -3.84654,-0.40285 -1.72947,0.0559 -1.72947,0.0559 -1.72947,-0.75648 0,-1.3979 -0.54322,-1.70229 -4.42747,-2.48094 -1.93588,-0.38807 -4.01471,-0.55848 -12.72898,-1.04347 -3.88094,-0.21599 -9.1811,-0.52136 -11.77813,-0.6786 -2.59701,-0.15724 -6.75958,-0.25133 -9.25012,-0.20908 -4.52828,0.0768 -4.52828,0.0768 -2.88786,1.09552 3.39936,2.11101 7.24813,2.78823 9.14325,1.60882 0.87999,-0.54765 1.49048,-0.53442 1.49048,0.0323 0,0.14215 -0.46696,0.45972 -1.0377,0.70572 -2.0764,0.89497 -7.63995,0.0368 -9.75426,-1.50458 -0.38049,-0.2774 -1.50119,-0.82511 -2.49045,-1.21717 -1.777976,-0.70462 -1.918775,-0.71513 -12.240851,-0.91335 -5.743199,-0.11028 -11.844804,-0.32754 -13.559118,-0.48281 -1.714314,-0.15525 -11.242038,-0.33902 -21.172712,-0.40838 -11.007669,-0.0769 -18.05576,-0.22845 -18.05576,-0.38828 0,-0.15813 3.596197,-0.26854 9.062466,-0.27823 4.984363,-0.008 9.560572,-0.11464 10.169347,-0.23515 1.106859,-0.21909 1.106859,-0.21909 0.345896,-0.53433 -0.760252,-0.31494 -1.006832,-0.97907 -0.484251,-1.30429 0.152188,-0.0947 0.276711,-0.41953 0.276711,-0.72179 0,-0.30228 0.18837,-0.62239 0.4186,-0.71134 0.728302,-0.28143 1.210778,0.44142 1.2972,1.94345 0.08289,1.44019 0.08289,1.44019 2.434947,1.44019 2.352095,0 2.352095,0 2.268109,-1.14942 -0.104167,-1.42578 0.510378,-2.21762 1.364062,-1.75757 0.803071,0.43279 0.949933,1.085 0.444137,1.97244 -0.245382,0.43052 -0.360141,0.83247 -0.255024,0.89321 0.105107,0.0607 1.934426,0.18937 4.06515,0.28585 2.130713,0.0965 5.49282,0.29952 7.471345,0.45118 5.463132,0.4188 21.733589,0.85874 22.811286,0.6168 1.021976,-0.22942 1.152518,-0.48091 1.515776,-2.92017 0.133768,-0.89829 0.09851,-1.31809 -0.11065,-1.31809 -0.363527,0 -1.584772,1.34165 -1.800415,1.97789 -0.200004,0.59012 -1.329708,1.0872 -2.47086,1.0872 -0.506518,0 -1.901537,-0.45929 -3.100043,-1.02063 -2.164468,-1.0138 -2.211612,-1.02201 -7.021643,-1.22382 -3.796355,-0.15928 -5.227349,-0.33115 -6.623701,-0.79558 -0.979641,-0.32582 -2.287134,-0.66573 -2.90553,-0.75537 -2.529039,-0.36654 -11.925571,-3.62513 -13.162291,-4.56449 -0.689809,-0.52395 -0.689809,-0.52395 -0.173547,-2.42119 0.283949,-1.04347 0.643719,-2.5861 0.799489,-3.42806 0.276692,-1.49559 0.733598,-2.35807 2.424438,-4.57642 0.648374,-0.85066 0.798992,-1.28126 0.682283,-1.95051 -0.215879,-1.23781 -1.024669,-9.1525 -1.169085,-11.44035 -0.06751,-1.06895 0.01569,-2.40844 0.184706,-2.97664 0.377153,-1.26758 2.300833,-3.04046 4.532915,-4.17758 1.016846,-0.51802 1.802584,-1.15155 2.137837,-1.72372 0.291536,-0.49756 1.346461,-1.5847 2.344292,-2.41588 1.047245,-0.87236 1.779852,-1.69206 1.732935,-1.93897 -0.07009,-0.36871 -0.640011,-0.72437 -2.703566,-1.68706 -0.936203,-0.43676 -0.614896,-1.39284 2.02248,-6.01805 0.763709,-1.33934 1.777065,-2.66392 2.484702,-3.24782 1.306781,-1.07826 1.972124,-2.573094 1.512988,-3.399241 -0.159797,-0.287527 -0.191714,-1.427407 -0.07835,-2.797924 0.173444,-2.096678 0.143951,-2.326387 -0.315629,-2.459041 -0.435115,-0.125594 -10.266855,-0.285388 -12.682477,-0.206127 -0.456587,0.01499 -4.771712,-0.04968 -9.589165,-0.143691 -6.094659,-0.118937 -9.204591,-0.07471 -10.22382,0.145402 -1.869404,0.403705 -11.402506,0.69367 -10.625861,0.323202 0.304387,-0.145196 1.930513,-0.272807 3.613611,-0.283576 3.208318,-0.02054 4.25066,-0.342902 3.919402,-1.212161 -0.106108,-0.278437 0.07855,-0.599 0.508479,-0.882649 0.3713,-0.244982 0.675089,-0.680101 0.675089,-0.966935 0,-0.8613 1.108862,-4.202588 1.3947,-4.202588 0.384771,0 0.326354,0.871113 -0.149474,2.229152 -0.228299,0.651554 -0.415079,1.545049 -0.415079,1.985543 0,0.722483 0.09063,0.800899 0.925623,0.800899 1.003651,0 1.818067,-0.674127 1.877971,-1.554484 0.02002,-0.294439 0.113426,-0.09648 0.207538,0.439907 0.171111,0.975255 0.171111,0.975255 2.038955,1.057647 1.867834,0.08239 1.867834,0.08239 1.867834,-0.991658 0,-1.428712 -0.464556,-1.967748 -1.798661,-2.087034 -1.10687,-0.09897 -1.10687,-0.09897 0.04428,-0.324461 1.015906,-0.199002 1.171037,-0.33232 1.320542,-1.134765 0.255839,-1.373233 -0.222539,-2.371255 -1.13659,-2.371255 -0.90923,0 -0.550709,-0.466629 0.463575,-0.603354 0.656859,-0.08854 0.695889,-0.195248 0.773094,-2.113426 0.08134,-2.020171 0.08134,-2.020171 -0.830158,-2.015905 -1.241819,0.0058 -1.705889,0.345667 -1.474494,1.079808 0.211616,0.671379 -1.071195,6.185345 -1.692563,7.275251 -0.37766,0.662437 -0.389252,0.633787 -0.236258,-0.584005 0.187915,-1.495706 0.04047,-1.671324 -1.935603,-2.305744 -1.383582,-0.444198 -1.383582,-0.444198 -0.138356,-0.307607 0.684874,0.07512 1.474814,0.166967 1.755419,0.20409 0.622184,0.08232 1.536317,-2.0006 1.803843,-4.110115 0.176416,-1.391175 0.176416,-1.391175 1.616288,-1.803883 1.404692,-0.402618 1.441884,-0.440121 1.521949,-1.534586 0.106572,-1.457001 0.611459,-1.451276 0.717948,0.0081 0.07876,1.0792 0.137262,1.144781 1.301001,1.4582 1.078802,0.290546 1.239001,0.438052 1.397042,1.286331 0.09817,0.526985 0.09424,1.344441 -0.0082,1.81657 -0.138593,0.635395 -0.02973,1.115128 0.419219,1.846521 0.545517,0.888811 0.595696,1.280964 0.499333,3.902392 -0.10714,2.914286 -0.10714,2.914286 0.39079,1.936956 0.620388,-1.217681 0.828484,-1.238551 0.715296,-0.07173 -0.08785,0.905594 -0.08785,0.905594 1.283565,0.832051 1.602279,-0.08592 1.705084,-0.163901 1.943974,-1.474428 0.175126,-0.960743 0.148596,-0.999679 -0.877798,-1.288348 -1.058383,-0.297664 -1.058383,-0.297664 -0.175383,-0.332877 0.485644,-0.01936 0.93963,-0.129255 1.008844,-0.244195 0.06916,-0.114941 0.217326,-1.324292 0.329121,-2.68745 0.203266,-2.478469 0.203266,-2.478469 -1.008855,-2.329599 -0.666655,0.08188 -1.45004,0.246567 -1.740843,0.365975 -0.460571,0.189118 -0.501893,0.130224 -0.320552,-0.456843 0.114489,-0.370672 0.274369,-1.400237 0.355288,-2.287925 0.202141,-2.217402 0.786606,-1.959013 0.722636,0.319469 -0.04625,1.648255 -0.0225,1.712474 0.635192,1.712474 0.3758,0 0.995692,-0.3146 1.377543,-0.69911 0.580015,-0.584049 0.680415,-0.91653 0.610034,-2.02017 -0.08093,-1.269463 -0.122067,-1.327789 -1.052748,-1.493362 -0.968503,-0.172303 -0.968503,-0.172303 0.06689,-0.208983 0.708752,-0.0251 1.144362,-0.212473 1.380971,-0.59397 0.437138,-0.704852 0.682118,-0.704852 0.904284,0 0.129015,0.409315 0.418682,0.557289 1.090932,0.557289 0.775757,0 0.939311,0.116799 1.073001,0.766271 0.134227,0.652055 2.881974,5.722632 4.247832,7.838786 0.579335,0.897566 0.900589,0.328423 0.636244,-1.127194 -0.134403,-0.740148 -0.572067,-1.513973 -1.289005,-2.279083 -1.864737,-1.990017 -1.952098,-2.320517 -0.215612,-0.815672 1.884846,1.633434 6.385029,6.484016 6.015597,6.484016 -0.132699,0 -0.372477,-0.132114 -0.532831,-0.293585 -0.367986,-0.37055 -2.309586,0.505265 -2.309586,1.041803 0,0.201498 -0.257234,0.366358 -0.571624,0.366358 -0.816614,0 -1.642115,0.504636 -1.642115,1.003835 0,0.293064 -0.16532,0.374102 -0.527226,0.258437 -0.378846,-0.121073 -0.690387,0.06221 -1.10687,0.651185 -0.318798,0.45083 -0.579634,0.938488 -0.579634,1.083681 0,0.342217 3.6318,0.621454 8.110128,0.623566 3.544315,0.0017 3.544315,0.0017 4.672109,-1.246185 1.638916,-1.813391 3.466759,-2.438323 6.84241,-2.339384 2.730054,0.08002 3.314684,-0.165962 2.3238,-0.977716 -0.276598,-0.226587 -0.898814,-0.737854 -1.382704,-1.136146 -0.544557,-0.448227 -1.055803,-1.257733 -1.341682,-2.12445 -0.612987,-1.858377 -0.304584,-2.575072 1.975531,-4.590839 1.934343,-1.710093 2.151339,-2.343019 1.214464,-3.54236 -0.902686,-1.155567 -0.708153,-2.226051 0.818524,-4.504237 0.754563,-1.126018 1.82264,-2.421392 2.373484,-2.878608 1.64416,-1.364696 1.843555,-3.457489 0.499798,-5.245729 -0.356363,-0.47423 -0.647919,-1.079389 -0.647919,-1.344801 0,-0.265411 0.75256,-1.905675 1.672361,-3.645033 1.181804,-2.234804 1.75352,-3.66986 1.949013,-4.892216 0.152147,-0.951361 0.458021,-2.082959 0.679724,-2.51466 0.602261,-1.172761 0.507054,-1.500173 -0.67639,-2.32601 -0.593704,-0.414305 -1.152352,-1.02696 -1.241449,-1.361455 -0.443744,-1.666156 0.131462,-2.602912 0.672881,-1.095799 0.151403,0.42145 0.822632,1.267831 1.49164,1.880848 1.216364,1.114576 1.216364,1.114576 0.866896,2.507797 -0.192209,0.766272 -0.510615,2.14556 -0.707563,3.065086 -0.196939,0.919525 -1.087566,3.092874 -1.979165,4.829666 -0.891599,1.736788 -1.620552,3.304162 -1.619902,3.483051 5.58e-4,0.178887 0.373685,0.889504 0.828971,1.579149 0.647155,0.980298 0.82803,1.56357 0.82896,2.673114 9.93e-4,1.419212 9.93e-4,1.419212 -2.59145,4.04034 -2.826314,2.857373 -3.365297,3.927867 -2.552988,5.070584 0.240687,0.338595 0.635853,0.890779 0.878138,1.227077 0.664932,0.92295 0.296213,1.56893 -1.975675,3.461261 -1.69468,1.41155 -2.058341,1.857111 -2.058341,2.521857 0,1.292386 0.755823,2.761805 1.950024,3.791118 1.280613,1.103793 1.996827,2.334592 1.744239,2.997425 -0.14042,0.368477 -0.377009,0.420333 -1.174092,0.257331 -0.549027,-0.112274 -2.118935,-0.214264 -3.488674,-0.226641 -2.105743,-0.01903 -2.682807,0.07887 -3.735677,0.633687 -2.302031,1.213086 -2.093449,1.844566 0.521815,1.579857 1.421684,-0.143898 1.937988,-0.322684 2.312776,-0.800874 0.482498,-0.615622 0.482498,-0.615622 0.647033,-0.01889 0.159744,0.579334 0.346545,0.602707 6.407201,0.801695 5.72469,0.187956 17.360282,-0.02613 17.852032,-0.328466 0.11414,-0.07018 0.20753,-0.81867 0.20753,-1.663313 0,-0.844643 0.20806,-2.602006 0.46236,-3.905253 0.4263,-2.18478 0.4277,-2.471131 0.0181,-3.672418 -0.24439,-0.716584 -0.69639,-2.368693 -1.00445,-3.671354 -0.30806,-1.302662 -0.81952,-3.183509 -1.13657,-4.179662 -0.31705,-0.996153 -0.77367,-3.062076 -1.0147,-4.590941 -0.36939,-2.342898 -0.38489,-3.131129 -0.0987,-5.015594 0.67501,-4.444454 0.177,-7.542503 -1.92559,-11.978774 -0.9529,-2.010523 -2.7868,-3.815806 -6.720425,-6.615566 -1.857542,-1.322103 -2.417729,-1.590551 -3.038406,-1.456038 -0.448896,0.09728 -0.760963,0.04559 -0.760963,-0.126065 0,-0.438479 0.961318,-0.867876 1.942983,-0.867876 0.729799,0 1.410524,0.507734 4.162191,3.104483 3.70042,3.492086 4.77127,4.912532 6.27226,8.319926 1.04333,2.368475 1.04333,2.368475 1.05609,9.055935 0.0124,6.480807 0.0367,6.769257 0.78463,9.334578 0.42452,1.455915 0.99887,3.73164 1.27635,5.057167 0.27748,1.325528 0.7638,3.000346 1.08074,3.721819 0.56124,1.27762 0.5642,1.36359 0.11358,3.302156 -0.25445,1.094712 -0.47125,2.865495 -0.48177,3.935074 -0.0191,1.944685 -0.0191,1.944685 1.08774,2.15271 1.59347,0.299476 10.89418,-0.03387 13.90203,-0.498261 3.09647,-0.478074 7.67101,-0.504446 14.32307,-0.08256 7.86921,0.499068 6.82699,0.854554 -1.93702,0.660687 -5.19601,-0.114938 -8.79623,-0.06244 -10.93031,0.159373 -1.75023,0.181922 -5.984,0.409109 -9.40836,0.504864 -6.22612,0.174103 -6.22612,0.174103 -6.18427,1.010035 0.023,0.459763 0.16291,2.40331 0.31084,4.318986 0.25035,3.24199 0.35478,3.6759 1.50895,6.26949 1.89111,4.24962 2.42746,6.33066 2.42746,9.41863 0,2.64466 0,2.64466 0.96259,3.49571 0.54851,0.48496 1.41153,0.92051 2.0062,1.01251 1.21086,0.18733 4.29588,1.10575 8.26123,2.45939 3.18077,1.08579 7.26837,3.25841 8.57001,4.55507 0.95775,0.95407 3.71652,5.95956 4.27639,7.75904 0.19072,0.61301 0.44381,1.23997 0.5624,1.39322 0.1186,0.15326 0.48419,1.11709 0.81243,2.14187 0.5368,1.67588 0.80175,2.04792 2.63504,3.70013 2.5012,2.25417 2.81713,3.01312 2.35854,5.66594 -0.17749,1.02684 -0.4906,2.24315 -0.69579,2.70291 -0.71039,1.59177 -0.74065,2.14011 -0.27571,4.99446 0.54585,3.35103 0.44052,3.71833 -1.73921,6.06488 -0.99078,1.06658 -1.18967,1.4314 -0.92563,1.69772 0.23896,0.24104 2.13444,0.36366 6.54915,0.42369 3.41707,0.0465 6.21285,0.18718 6.21285,0.3127 0,0.44696 -2.37613,0.59843 -6.4159,0.40901 -4.43094,-0.20777 -4.61923,-0.14507 -3.66856,1.22164 0.30568,0.43948 0.71211,0.61929 1.39975,0.61929 1.64385,0 4.92675,0.59372 5.36411,0.9701 0.22829,0.19647 0.72638,0.44314 1.10687,0.54817 1.98194,0.54709 2.21373,0.73593 2.21373,1.80354 0,0.56377 -0.15253,1.17864 -0.33896,1.36637 -0.26749,0.26933 -0.26749,0.45659 0,0.88788 0.18643,0.3006 0.33896,0.61095 0.33896,0.68966 0,0.17623 -0.8442,0.14962 -1.31441,-0.0415 z m -12.28443,-10.19495 c 0.44936,-0.65133 1.26474,-1.61635 1.81196,-2.14449 1.13934,-1.09964 1.16599,-1.31408 0.66725,-5.37089 -0.333,-2.70878 -0.333,-2.70878 0.55077,-5.33949 1.04005,-3.09594 1.04043,-3.10122 0.34426,-4.73666 -0.37062,-0.87065 -0.96163,-1.57276 -1.888,-2.24293 -1.5773,-1.14106 -2.44214,-2.60725 -3.72537,-6.31569 -1.0333,-2.98613 -3.56333,-7.76196 -4.74013,-8.94772 -1.83485,-1.84882 -9.94571,-5.15117 -16.22523,-6.60614 -0.53269,-0.12343 -1.49774,-0.44347 -2.14456,-0.71121 -0.90925,-0.37638 -1.17604,-0.63426 -1.17604,-1.13673 0,-0.35746 -0.12881,-0.73007 -0.28625,-0.82805 -0.18093,-0.1126 -0.22278,-0.91314 -0.11379,-2.17594 0.23182,-2.6854 -0.4304,-5.23911 -2.42965,-9.36962 -1.02561,-2.1189 -1.16263,-2.65214 -1.36048,-5.294233 -0.30758,-4.107536 -0.50995,-5.475725 -0.88292,-5.96929 -0.27839,-0.368379 -1.70631,-0.434303 -10.36142,-0.47836 -5.52119,-0.02811 -10.121792,0.03274 -10.223554,0.135223 -0.101782,0.102471 -0.256387,1.811611 -0.343604,3.79808 -0.140689,3.20475 -0.225676,3.67934 -0.754141,4.21148 -0.595572,0.59974 -0.595572,0.59974 -2.416024,-0.198866 -1.001247,-0.439227 -1.820442,-0.896083 -1.820442,-1.015227 0,-0.417585 0.930371,-0.210461 2.06666,0.460089 1.70361,1.005344 1.909115,0.734564 2.144443,-2.825511 0.109298,-1.653378 0.233822,-3.382309 0.276723,-3.842072 0.07401,-0.792968 0.02023,-0.840201 -1.045006,-0.919005 -1.202747,-0.08897 -2.612673,0.317318 -2.612673,0.752883 0,0.622839 0.867092,1.120005 1.671009,0.958101 0.478812,-0.09643 0.819443,-0.04712 0.819443,0.118633 0,0.353616 -0.666366,0.621931 -1.544576,0.621931 -0.606762,0 -0.669154,0.114792 -0.669154,1.231113 0,0.677109 -0.07536,1.428727 -0.167352,1.670257 -0.291381,0.764591 -0.662804,0.175681 -0.662804,-1.050901 0,-0.649948 -0.149423,-1.332191 -0.332054,-1.516096 -0.182641,-0.183905 -1.012787,-0.334373 -1.844783,-0.334373 -1.849469,0 -1.641351,-0.351875 0.325984,-0.551164 1.37873,-0.139667 1.435784,-0.178659 1.435784,-0.981379 0,-0.835932 0,-0.835932 -1.921068,-0.755906 -1.056588,0.04402 -2.06727,0.20221 -2.245968,0.351543 -0.178687,0.149334 -0.391615,1.179136 -0.473175,2.288448 -0.125989,1.713618 -0.06245,2.158386 0.422171,2.957528 0.570467,0.940593 0.570467,0.940593 0.0031,1.393219 -0.31218,0.248942 -0.776643,0.871063 -1.032122,1.382495 -0.255488,0.51141 -0.827732,1.13836 -1.271652,1.39322 -0.443921,0.25484 -1.088857,1.0276 -1.433193,1.71725 -0.344337,0.68965 -0.950872,1.75546 -1.347855,2.36848 -1.184859,1.82964 -1.526708,3.05462 -1.084594,3.88648 0.205176,0.38605 0.580202,0.76812 0.833399,0.84904 0.666861,0.21312 1.664775,1.21249 1.664775,1.6672 0,0.55616 -2.105134,2.94888 -3.288836,3.73811 -0.550152,0.36683 -1.469127,1.27591 -2.042165,2.02018 -0.75411,0.97945 -1.233437,1.35323 -1.735361,1.35323 -0.462915,0 -1.18872,0.48634 -2.183143,1.46288 -1.489691,1.46288 -1.489691,1.46288 -1.685131,4.42361 -0.196938,2.98336 -0.156989,3.588 0.584,8.83922 0.223777,1.58583 0.417557,2.96512 0.430615,3.06508 0.08877,0.67945 -0.199673,1.22985 -1.383686,2.63991 -1.375148,1.6377 -1.616535,2.21381 -2.372524,5.66239 -0.628812,2.86845 -0.595592,3.07192 0.601364,3.6829 1.64288,0.83861 7.612003,2.78002 11.709061,3.80829 2.064399,0.51811 4.119023,1.08632 4.565824,1.26268 0.446811,0.17634 2.930739,0.416 5.519835,0.53255 4.52569,0.20373 4.773808,0.24564 6.425772,1.08536 0.94507,0.48038 2.064307,0.87297 2.487179,0.8724 1.154613,-0.002 2.349526,-0.87059 3.791225,-2.75724 2.068784,-2.70727 3.076764,-2.89655 2.632684,-0.49437 -0.11824,0.63955 -0.25603,2.04055 -0.3062,3.11333 -0.0913,1.95051 -0.0913,1.95051 4.33625,2.00214 5.56853,0.065 16.36733,0.57444 19.64687,0.92697 1.36975,0.14723 5.04317,0.40475 8.16314,0.57225 3.11999,0.1675 6.17078,0.40556 6.77957,0.52904 1.86694,0.37866 2.01954,0.33095 2.86581,-0.89566 z m -79.101274,-4.12644 c 0,-0.14421 -0.124524,-0.2622 -0.276712,-0.2622 -0.152199,0 -0.276723,0.19548 -0.276723,0.43441 0,0.23893 0.124524,0.35692 0.276723,0.2622 0.152188,-0.0947 0.276712,-0.2902 0.276712,-0.43441 z M 46.570669,91.474468 c 0.368956,-0.243891 0.368956,-0.304864 0,-0.548756 -0.862251,-0.569975 -2.490452,-0.171988 -2.490452,0.608751 0,0.316813 1.993049,0.2688 2.490452,-0.06 z m 18.05576,0.04839 c 1.386803,-0.03846 1.591122,-0.115002 1.591122,-0.596101 0,-1.005844 -0.694992,-1.022191 -13.559119,-0.318919 -3.817537,0.208701 -5.114822,0.430098 -4.86596,0.830435 0.09611,0.154525 12.13087,0.214994 16.833957,0.08458 z M 55.301361,89.11921 c 0.695952,-1.677255 0.587025,-1.860048 -1.051808,-1.765039 -1.452765,0.08422 -1.452765,0.08422 -1.379494,1.059478 0.110722,1.473797 0.250213,1.671865 1.177394,1.671865 0.711746,0 0.919337,-0.159978 1.253908,-0.966304 z m 9.991424,-0.819557 c 0.719476,-1.519279 0.397003,-1.877685 -1.601817,-1.78024 -1.703598,0.08305 -1.703598,0.08305 -2.045901,1.254129 -0.188277,0.644095 -0.274173,1.239696 -0.190888,1.323559 0.08331,0.08386 0.87982,0.152481 1.770087,0.152481 1.569226,0 1.632391,-0.02901 2.068519,-0.949929 z m 2.558932,0.422218 c 0.629969,-0.487699 0.656116,-0.625522 0.487907,-2.571264 -0.142671,-1.6504 -0.410434,-2.519706 -1.357445,-4.407046 -0.648828,-1.293107 -1.335354,-2.400717 -1.525592,-2.461356 -0.518101,-0.165141 -0.446895,3.81959 0.102195,5.721707 0.286962,0.993987 0.391171,2.036666 0.28975,2.898985 -0.155018,1.318059 -0.142496,1.346554 0.589544,1.340487 0.411362,-0.0034 1.047472,-0.238087 1.41358,-0.521513 z m 2.239867,-1.719761 c 0,-0.813903 -0.499405,-1.653546 -0.983512,-1.653546 -0.389541,0 -0.381107,0.538953 0.02942,1.880847 0.177923,0.58155 0.954081,0.396636 0.954081,-0.227301 z M 55.736342,85.06992 c 0.246601,-1.793811 -0.08465,-2.29517 -1.36337,-2.063302 -0.562519,0.102003 -1.178396,0.309853 -1.368645,0.461886 -0.366748,0.293101 -0.482269,2.485781 -0.148658,2.821718 0.108482,0.109237 0.762223,0.161483 1.452766,0.116103 1.255527,-0.0825 1.255527,-0.0825 1.427907,-1.336405 z m 16.937308,1.044129 c 0.4362,-0.321179 0.408493,-0.421438 -0.346587,-1.253899 -0.451384,-0.497644 -0.952234,-0.904807 -1.113012,-0.904807 -0.316682,0 -0.410371,2.017387 -0.107831,2.322034 0.29327,0.295318 1.051891,0.216269 1.56743,-0.163328 z m -8.3296,-0.357154 c 0.288016,-0.111291 0.360285,-0.5869 0.285827,-1.880849 -0.138284,-2.40284 -0.278736,-2.928134 -0.867816,-3.245593 -0.874183,-0.47111 -1.4168,0.22659 -1.690034,2.173068 -0.319365,2.275193 -0.03355,3.102331 1.072165,3.102331 0.447895,0 0.987838,-0.06703 1.199858,-0.148957 z m -9.636228,-4.604709 c 0.666387,-1.253264 0.441288,-2.410472 -0.515932,-2.652392 -1.051612,-0.265776 -1.256735,0.06203 -1.256735,2.008323 0,1.721932 0.03169,1.809595 0.622607,1.72508 0.379476,-0.05427 0.828589,-0.476418 1.15006,-1.081011 z m 9.619226,-2.351759 c 0.331608,-1.25185 0.04521,-1.859874 -0.827959,-1.757727 -0.620606,0.07261 -0.761892,0.257975 -0.914948,1.200438 -0.222921,1.372663 -0.105892,1.587695 0.804917,1.478852 0.530127,-0.06336 0.774167,-0.303115 0.93799,-0.921563 z m 57.787282,88.195903 c -2.32039,-0.71569 -3.21673,-1.28515 -4.13252,-2.62547 -0.46091,-0.67458 -1.18278,-1.48548 -1.60416,-1.802 -0.5298,-0.39797 -0.62958,-0.57823 -0.32342,-0.58434 0.54391,-0.0108 2.70842,1.5359 2.91765,2.08493 0.17582,0.46139 2.27972,1.80167 3.69588,2.35447 2.09755,0.81877 1.67208,1.25883 -0.55343,0.57241 z m -81.354712,-3.88961 c 0,-0.14421 0.138243,-0.34823 0.307206,-0.45339 0.181237,-0.11279 0.244143,-0.58258 0.153416,-1.14558 -0.157308,-0.97607 0.384741,-1.5787 0.927967,-1.0317 0.325642,0.32792 -0.138088,2.35095 -0.607609,2.65072 -0.484922,0.30959 -0.78098,0.302 -0.78098,-0.0201 z m 7.099157,-0.24737 c -0.471937,-0.52512 -0.584093,-1.34301 -0.289997,-2.11476 0.306204,-0.80352 0.712839,-0.47139 0.51778,0.42291 -0.169314,0.77623 -0.13177,0.84558 0.370773,0.68497 0.411032,-0.13137 0.606442,-0.0287 0.737686,0.38773 0.352647,1.11882 -0.522672,1.5244 -1.336242,0.61915 z m 12.235326,0.47402 c -0.01961,-0.0571 -0.06338,-0.41725 -0.09724,-0.80039 -0.03385,-0.38313 -0.09353,-0.822 -0.132606,-0.97524 -0.1311,-0.51451 0.332785,-1.55642 0.646701,-1.4525 0.507767,0.16808 0.545744,2.55731 0.04728,2.9739 -0.235618,0.19691 -0.444457,0.31131 -0.464081,0.25423 z M 44.822961,162.324 c -0.08259,-0.42144 -0.190146,-0.9997 -0.238941,-1.285 -0.08259,-0.48261 0.7039,-1.29279 0.974552,-1.00396 0.200562,0.21404 -0.148441,3.05523 -0.375295,3.05523 -0.115553,0 -0.277692,-0.34482 -0.360316,-0.76627 z m 13.115353,0.0967 c -0.201707,-0.24474 -0.538282,-0.44499 -0.747936,-0.44499 -0.50145,0 -0.490229,-0.95521 0.01621,-1.37843 0.294973,-0.24651 0.544578,-0.25278 0.968514,-0.0243 0.584517,0.315 0.687248,0.86672 0.331103,1.77807 -0.18262,0.46731 -0.234864,0.47372 -0.567867,0.0696 z m -8.019887,-5.81299 c -1.083376,-0.56106 -1.332835,-1.19369 -0.733609,-1.86043 0.283525,-0.31548 0.745253,-0.5736 1.026053,-0.5736 0.666625,0 0.644802,0.21916 -0.08073,0.81074 -0.591258,0.48211 -0.591258,0.48211 0.138356,1.06003 1.125482,0.89147 0.920503,1.22127 -0.350086,0.56326 z m 2.677263,-0.41386 c -0.591702,-0.67853 -0.886788,-1.74153 -0.483437,-1.74153 0.176706,0 0.386403,0.25078 0.466002,0.55729 0.07959,0.30651 0.308599,0.55729 0.508881,0.55729 0.200283,0 0.443198,-0.25078 0.539809,-0.55729 0.210936,-0.66924 0.569993,-0.72151 0.800542,-0.11652 0.251555,0.66011 0.210027,0.8703 -0.266875,1.35052 -0.565079,0.56901 -1.03845,0.55396 -1.564922,-0.0498 z m 6.315628,-0.11575 c -0.61661,-0.88646 -0.572212,-1.00615 0.547974,-1.47746 1.216436,-0.5118 1.203749,-1.31662 -0.02467,-1.56528 -0.929039,-0.18805 -0.54532,-0.46119 0.833524,-0.59332 0.790652,-0.0758 0.834142,-0.0244 0.913978,1.07854 0.135693,1.87483 -0.268981,3.00686 -1.110752,3.10715 -0.496917,0.0592 -0.854353,-0.11015 -1.160052,-0.54963 z m 1.288726,-0.37885 c 0.01579,-0.14942 -0.179874,-0.31213 -0.434867,-0.36157 -0.328513,-0.0637 -0.413634,0.0412 -0.292124,0.36008 0.179182,0.47017 0.677287,0.4712 0.726991,0.001 z m 5.655115,0.77324 c -0.06514,-0.11494 -0.205764,-0.69613 -0.312604,-1.29155 -0.186171,-1.03753 -0.167549,-1.07425 0.447904,-0.88308 0.353194,0.1097 0.922351,0.26665 1.264788,0.34877 0.700896,0.16808 0.849007,0.64163 0.200685,0.64163 -0.232056,0 -0.540284,0.31347 -0.684947,0.69661 -0.257016,0.68073 -0.679187,0.9055 -0.915826,0.48762 z m 2.299408,-0.0696 c 0,-0.15326 0.124524,-0.27865 0.276723,-0.27865 0.152189,0 0.276712,0.12539 0.276712,0.27865 0,0.15325 -0.124523,0.27864 -0.276712,0.27864 -0.152199,0 -0.276723,-0.12539 -0.276723,-0.27864 z M 43.031123,154.1113 c -0.159786,-1.26037 -0.230806,-2.38888 -0.157813,-2.5078 0.07298,-0.11891 0.530053,-0.21223 1.015698,-0.20735 0.814178,0.008 0.84336,0.0391 0.374428,0.39693 -0.713221,0.54422 -0.484221,1.40442 0.37516,1.40927 0.541451,0.003 0.705376,0.16525 0.774404,0.76626 0.08568,0.74557 -0.301156,1.03747 -0.640992,0.48376 -0.309394,-0.50409 -0.691791,-0.29101 -0.691791,0.38548 0,0.70913 0.550359,0.98056 2.075373,1.02353 1.355731,0.0382 -0.01548,0.49833 -1.555333,0.52192 -1.278609,0.0196 -1.278609,0.0196 -1.569134,-2.272 z m 130.550727,0.63801 c -0.38146,-0.11684 -1.07898,-0.41313 -1.55002,-0.65841 -2.99502,-1.55958 -2.37513,-5.98618 1.08738,-7.76492 1.05201,-0.54043 1.09221,-0.60363 0.61001,-0.95869 -1.55328,-1.14368 -2.03943,-3.86172 -0.99825,-5.58112 1.83715,-3.03384 6.74458,-3.85943 9.21696,-1.5506 1.7123,1.59902 1.58201,3.98644 -0.31155,5.70907 -0.5905,0.5372 -1.34727,1.06418 -1.68171,1.17107 -0.60807,0.19434 -0.60807,0.19434 0.0386,0.62857 3.07875,2.06739 3.49159,5.01594 1.03243,7.37391 -1.65386,1.58579 -5.11545,2.34432 -7.44384,1.63112 z m 4.23992,-1.72277 c 0.9752,-0.50219 1.56018,-1.4292 1.56678,-2.48284 0.008,-1.26613 -0.48028,-1.9413 -2.21357,-3.0613 -1.21099,-0.78249 -1.50004,-0.86534 -2.08422,-0.59731 -1.03635,0.47548 -1.7816,1.92967 -1.7828,3.47872 -9.9e-4,1.82597 1.06519,2.97399 2.76304,2.97399 0.63049,0 1.41834,-0.14007 1.75077,-0.31126 z m 1.38653,-9.43461 c 1.82037,-2.17846 1.01898,-5.02227 -1.41531,-5.02227 -1.22585,0 -1.89736,0.39366 -2.42537,1.42182 -0.62145,1.2101 -0.29111,2.29145 1.05425,3.45105 1.38581,1.19447 1.89053,1.22153 2.78643,0.1494 z m -152.932649,9.46722 c 0.173536,-1.67186 0.173536,-1.67186 -3.302864,-1.67186 -3.476391,0 -3.476391,0 -3.661633,-0.8493 -0.163203,-0.7482 0.14392,-1.35361 2.579754,-5.08526 1.520762,-2.32977 3.224454,-5.08234 3.785981,-6.1168 1.020963,-1.88085 1.020963,-1.88085 2.526189,-1.88085 1.112816,0 1.548715,0.11411 1.672021,0.43766 0.232882,0.61112 -4.077908,6.97168 -6.549118,9.66319 l -1.982747,2.15949 h 2.742368 c 2.74238,0 2.74238,0 3.136173,-2.15949 0.393793,-2.15949 0.393793,-2.15949 1.798588,-2.24204 1.404795,-0.0825 1.404795,-0.0825 1.196245,1.39322 -0.356694,2.52411 -0.384545,2.45102 0.934417,2.45102 1.183351,0 1.183351,0 1.077801,1.11458 -0.105137,1.1101 -0.110319,1.11458 -1.289448,1.11458 -1.315381,0 -1.514145,0.30034 -1.521371,2.29882 -0.0042,1.04491 -0.0042,1.04491 -1.65984,1.04491 -1.656052,0 -1.656052,0 -1.482516,-1.67187 z m 122.044689,-34.1398 c -0.88221,-0.83966 -1.76103,-1.52664 -1.95293,-1.52664 -0.19189,0 -0.74387,0.56425 -1.22661,1.2539 -0.48381,0.69115 -1.10036,1.2539 -1.37381,1.2539 -0.27285,0 -0.92915,-0.35693 -1.45847,-0.79317 -1.80618,-1.4886 -2.05937,-1.53253 -2.57367,-0.44654 -0.25032,0.52858 -0.56915,0.96106 -0.70852,0.96106 -0.13934,0 -0.90101,-0.43887 -1.69258,-0.97525 -0.79155,-0.5364 -1.55428,-0.97526 -1.69495,-0.97526 -0.14067,0 -0.38183,0.3339 -0.53591,0.74198 -0.31838,0.84326 -0.75377,0.60957 -0.87425,-0.46926 -0.11027,-0.98746 1.03169,-1.0502 2.78944,-0.15328 1.25888,0.64237 1.43084,0.66834 1.82141,0.27505 0.2372,-0.23886 0.43128,-0.61342 0.43128,-0.83236 0,-0.6098 0.47625,-0.48564 2.21373,0.57719 0.87689,0.5364 1.76144,0.97526 1.96567,0.97526 0.20424,0 0.82327,-0.52838 1.37562,-1.17417 1.00427,-1.17419 1.00427,-1.17419 2.84027,0.0303 1.00979,0.66248 2.04881,1.22222 2.30893,1.24384 0.2601,0.0216 0.7287,-0.36339 1.0413,-0.85556 0.31261,-0.49218 0.75516,-0.89861 0.98345,-0.90318 0.48077,-0.009 2.5971,1.92285 2.36345,2.15813 -0.0861,0.0867 -0.53475,-0.12398 -0.99704,-0.46814 -1.01469,-0.75542 -1.15348,-0.71871 -1.98213,0.52408 -0.35693,0.53534 -0.83138,1.00289 -1.05431,1.03903 -0.22293,0.0362 -1.12715,-0.62129 -2.00937,-1.46096 z m -15.69076,-3.45089 c 0,-0.36844 -2.50058,-1.97677 -3.07342,-1.97677 -0.30662,0 -0.61829,0.36258 -0.8383,0.97525 -0.34595,0.96335 -0.86564,1.25369 -1.21759,0.68025 -0.2306,-0.37572 1.20947,-2.49144 1.69579,-2.49144 0.2009,0 0.99885,0.37618 1.77321,0.83594 0.77436,0.45976 1.56152,0.83593 1.74921,0.83593 0.1877,0 0.66628,-0.37295 1.06349,-0.82877 0.7222,-0.82877 0.7222,-0.82877 2.20617,-0.005 1.74141,0.96662 2.32853,1.03041 2.71917,0.2954 0.44901,-0.84483 1.29133,-0.96609 2.19749,-0.31635 0.96101,0.68905 1.49465,0.72677 1.97843,0.13979 0.19779,-0.23999 0.71222,-0.61994 1.14315,-0.84434 0.72917,-0.3797 0.855,-0.35908 1.81387,0.29702 1.28648,0.88027 1.72589,0.88151 3.00357,0.008 1.34201,-0.91706 1.74913,-0.8813 3.04064,0.26704 1.18654,1.05502 0.79681,1.34542 -0.57651,0.42957 -0.45659,-0.30449 -0.92633,-0.55444 -1.04387,-0.55546 -0.11754,-10e-4 -0.76837,0.51298 -1.44626,1.1422 -1.23253,1.14402 -1.23253,1.14402 -2.52323,0 -0.70988,-0.62923 -1.37324,-1.14405 -1.47416,-1.14405 -0.10096,0 -0.60589,0.43887 -1.12219,0.97526 -1.11679,1.16026 -1.45647,1.1975 -2.54092,0.27864 -1.04463,-0.88512 -1.18561,-0.87495 -1.9303,0.13932 -0.75086,1.02267 -1.22993,1.04585 -2.46212,0.11914 -1.798,-1.35226 -1.8347,-1.35399 -2.6425,-0.12481 -0.66906,1.01805 -1.49282,1.49696 -1.49282,0.86787 z M 10.87241,112.13337 c -1.2717658,-0.42013 -2.4505027,-1.13982 -2.8813341,-1.75919 -0.38442,-0.55267 -0.3836871,-0.66021 0.00723,-1.09538 0.4096489,-0.45581 0.5035863,-0.4451 1.6959182,0.19328 2.9559369,1.58263 6.4374269,0.10953 6.4374269,-2.72381 0,-0.60243 -0.128209,-1.33656 -0.284919,-1.63141 -0.465082,-0.87506 -1.780245,-1.4083 -2.992149,-1.21315 -0.996839,0.16051 -1.084717,0.12015 -1.213318,-0.55727 -0.115708,-0.60951 -0.019,-0.75922 0.584754,-0.90499 3.332718,-0.80474 5.246612,-3.667762 3.42138,-5.118142 -0.978372,-0.777428 -2.688061,-0.62896 -4.176161,0.362681 -1.038863,0.692275 -1.057589,0.694229 -1.397415,0.146284 -0.2876952,-0.463883 -0.2616096,-0.647578 0.158362,-1.11487 1.640259,-1.825083 4.89889,-2.634082 7.139417,-1.772458 1.66081,0.63869 2.35737,1.571311 2.35737,3.15627 0,1.672409 -0.826781,2.957715 -2.534199,3.939655 -1.368264,0.78689 -1.368264,0.78689 -0.56254,0.94915 1.169808,0.23559 2.48657,1.46897 2.841375,2.66145 0.62428,2.09818 -0.771308,4.7106 -3.177391,5.9478 -1.228586,0.63174 -4.232926,0.92758 -5.423968,0.5341 z m 172.74222,-0.33004 c -0.9983,-0.30876 -1.02058,-0.34935 -0.61288,-1.11647 0.22081,-0.41546 0.58544,-0.53933 1.59112,-0.54052 3.32817,-0.004 5.52522,-1.75583 6.55292,-5.22509 0.18632,-0.62903 0.18632,-0.62903 -0.77116,-0.0602 -0.52662,0.31288 -1.5965,0.64508 -2.37751,0.73823 -3.57803,0.42671 -5.73813,-2.53769 -4.62932,-6.353061 1.56851,-5.397173 8.63869,-6.795431 10.98122,-2.171728 1.62082,3.199209 0.49694,9.012289 -2.35753,12.193849 -1.94676,2.16984 -5.79356,3.33394 -8.37686,2.53495 z m 6.72103,-8.46875 c 1.2524,-0.52693 1.60671,-1.47971 1.37427,-3.69564 -0.24225,-2.309499 -1.04514,-3.532203 -2.3947,-3.646846 -0.82209,-0.06985 -1.11495,0.06289 -1.70994,0.774923 -1.23941,1.483205 -1.61132,3.714223 -0.90353,5.420003 0.64134,1.54563 1.81035,1.9148 3.6339,1.14756 z m -55.72607,5.94392 c -0.83794,-2.19191 -0.62131,-2.45069 1.54045,-1.84018 1.59879,0.45151 1.59879,0.45151 3.41409,-0.64861 1.81325,-1.09889 1.81861,-1.10013 4.78027,-1.10013 2.2501,0 3.34252,0.13362 4.53084,0.55419 1.4312,0.50653 3.1245,1.74066 3.1245,2.27723 0,0.41364 -1.63282,1.06961 -2.66245,1.06961 -0.57069,0 -1.25571,0.20601 -1.53681,0.46216 -0.4356,0.39697 -0.6144,0.41106 -1.26701,0.0999 -0.41792,-0.19926 -1.75603,-0.46771 -2.97358,-0.59657 -1.21756,-0.12887 -2.89862,-0.31135 -3.73568,-0.40551 -1.44409,-0.16245 -1.58564,-0.12009 -2.76717,0.8283 -0.68487,0.54972 -1.36975,0.99887 -1.52195,0.99812 -0.15219,-8.4e-4 -0.56867,-0.7651 -0.9255,-1.69854 z m 1.84761,-0.42137 c -0.13517,-0.70676 -1.06046,-0.86261 -1.06046,-0.17862 0,0.66908 0.58348,1.27193 0.91144,0.94169 0.13603,-0.13698 0.20309,-0.48036 0.14902,-0.76307 z m 9.70442,-0.97997 c 0.58572,-1.6919 0.54401,-1.72393 -2.03382,-1.56199 -1.74082,0.10936 -2.58855,0.30303 -3.3206,0.75862 -0.54064,0.33646 -0.98299,0.72452 -0.98299,0.86237 0,0.40123 1.79059,0.72394 4.33122,0.78057 1.67328,0.0373 1.7076,0.023 2.00619,-0.83957 z m 2.16586,0.70916 c -0.092,-0.0926 -0.33062,-0.10249 -0.53037,-0.0219 -0.22075,0.089 -0.15517,0.15498 0.16718,0.16834 0.2917,0.0121 0.45514,-0.0537 0.36319,-0.14634 z m 2.01196,-0.39853 c 0,-0.32691 -1.38965,-1.38363 -1.81957,-1.38363 -0.29249,0 -0.28885,0.14071 0.0192,0.73852 0.20927,0.40619 0.53304,0.83345 0.71946,0.94948 0.38337,0.23858 1.08095,0.0422 1.08095,-0.30437 z m -80.330232,-3.80022 c -0.09384,-0.15284 -0.03087,-0.73613 0.139801,-1.29618 0.260475,-0.85464 0.23633,-1.10066 -0.150247,-1.53081 -0.590762,-0.65733 -0.583556,-1.14914 0.02363,-1.613282 1.28629,-0.983232 1.891029,-0.05925 1.417234,2.165332 -0.301414,1.41526 -1.139758,2.74855 -1.430437,2.27494 z m 0.912533,-3.57426 c 0,-0.22988 -0.18679,-0.41796 -0.415078,-0.41796 -0.228289,0 -0.415079,0.18808 -0.415079,0.41796 0,0.22988 0.18679,0.41797 0.415079,0.41797 0.228288,0 0.415078,-0.18809 0.415078,-0.41797 z m -14.859023,2.59511 c -0.585952,-0.7397 -1.426144,-3.00577 -1.172874,-3.1634 0.142228,-0.0886 0.520041,0.28527 0.839582,0.83063 0.319542,0.54536 0.662082,0.99076 0.761202,0.98979 0.0991,-8.3e-4 0.392316,-0.37714 0.651583,-0.83593 0.548191,-0.97009 0.941551,-1.0617 1.188915,-0.27688 0.09662,0.30651 0.287407,0.55729 0.423988,0.55729 0.136581,0 0.381622,-0.25078 0.544526,-0.55729 0.162904,-0.30651 0.416328,-0.55728 0.563159,-0.55728 0.340806,0 0.350396,1.02977 0.01156,1.24065 -0.140482,0.0874 -0.338731,0.54089 -0.440555,1.00771 -0.14551,0.66711 -0.312915,0.83042 -0.782259,0.76307 -0.442218,-0.0634 -0.57467,-0.24832 -0.510554,-0.71263 0.120765,-0.87458 -0.341447,-0.78147 -1.124956,0.22665 -0.523168,0.67315 -0.724689,0.77622 -0.953308,0.48762 z m 5.311088,-0.22861 c -0.09476,-0.15433 0.0224,-0.35583 0.260381,-0.44777 0.598463,-0.23125 0.541006,-0.62644 -0.176055,-1.21113 -0.587521,-0.47905 -0.592104,-0.52177 -0.131976,-1.2289 0.533728,-0.820258 0.704798,-0.864061 1.66113,-0.425281 0.488494,0.224121 0.824562,0.223911 1.241458,-8.42e-4 0.774486,-0.417377 1.000545,0.05624 0.321988,0.674643 -0.748928,0.68249 -0.686031,0.96853 0.214063,0.97357 1.019849,0.005 1.528421,0.36851 1.407985,1.00438 -0.158485,0.83668 -1.288808,0.81573 -2.176174,-0.0403 -0.777625,-0.7502 -0.777625,-0.7502 -1.222465,0.11601 -0.441815,0.86033 -1.070388,1.12318 -1.400335,0.58559 z m 1.799868,-2.50582 c 0,-0.15325 -0.186791,-0.27864 -0.415079,-0.27864 -0.228288,0 -0.415078,0.12539 -0.415078,0.27864 0,0.15326 0.18679,0.27864 0.415078,0.27864 0.228288,0 0.415079,-0.12538 0.415079,-0.27864 z m 10.238519,0.29508 c 0,-0.4688 0.124524,-0.85237 0.276713,-0.85237 0.152199,0 0.276712,0.30608 0.276712,0.68017 0,0.37408 -0.124513,0.75765 -0.276712,0.85237 -0.161438,0.10052 -0.276713,-0.18286 -0.276713,-0.68017 z m -6.445054,-0.19045 c -0.356631,-0.3591 -0.203648,-1.512443 0.222445,-1.677095 0.588017,-0.227207 1.284318,0.436358 1.18588,1.130115 -0.08186,0.57673 -1.017784,0.94024 -1.408325,0.54698 z m -12.47273,-2.354006 c -0.401009,-0.31763 -0.729107,-0.765038 -0.729107,-0.99423 0,-0.333233 0.160993,-0.301269 0.80369,0.159548 1.461921,1.04823 2.131012,0.491741 1.014801,-0.844048 -0.992752,-1.188028 -0.947435,-1.92342 0.118525,-1.92342 0.456587,0 0.830148,0.125391 0.830148,0.27864 0,0.153259 -0.186781,0.27865 -0.415069,0.27865 -0.572635,0 -0.519297,0.375944 0.138356,0.975249 0.663373,0.604533 0.717164,1.606518 0.118588,2.209253 -0.579696,0.583733 -1.006708,0.552019 -1.879932,-0.139642 z m 5.635378,0.189359 c 0,-0.213485 0.18678,-0.460328 0.415079,-0.548547 0.557935,-0.215586 0.530704,-1.013814 -0.03458,-1.013814 -0.355506,0 -0.413654,-0.181314 -0.277682,-0.865886 0.162986,-0.820629 0.134444,-0.856417 -0.54593,-0.684458 -0.909292,0.229805 -0.784056,-0.386422 0.177449,-0.873125 0.807003,-0.408493 1.372536,-0.03481 1.372536,0.906907 0,0.354396 0.127838,0.982921 0.284072,1.396712 0.218709,0.579243 0.185397,0.904004 -0.144736,1.411368 -0.468797,0.720444 -1.246196,0.88941 -1.246196,0.270843 z m 3.268955,-0.50649 c -0.06689,-0.689791 -0.244784,-0.931852 -0.777047,-1.057128 -0.899919,-0.211823 -0.994311,-0.829869 -0.26862,-1.758873 0.732938,-0.938269 1.161199,-0.961672 0.934222,-0.05104 -0.189124,0.75879 0.272841,0.979365 0.546601,0.260989 0.283722,-0.744508 0.723358,-0.142064 0.723358,0.991215 0,2.082968 -0.980653,3.449899 -1.158514,1.614854 z m -5.759406,0.198028 c 0,-0.229878 0.18678,-0.417959 0.415079,-0.417959 0.228288,0 0.415068,0.188081 0.415068,0.417959 0,0.229889 -0.18678,0.41797 -0.415068,0.41797 -0.228299,0 -0.415079,-0.188081 -0.415079,-0.41797 z m 12.728971,-0.494214 c -0.228288,-0.494454 -0.664126,-0.942516 -0.968514,-0.995706 -0.989294,-0.172874 -1.044778,-0.533423 -0.238652,-1.550761 1.102679,-1.391606 2.036797,-1.361254 1.065836,0.03462 -0.592392,0.851646 0.06514,1.199431 0.690181,0.36505 0.615537,-0.821719 0.805899,-0.332047 0.584765,1.504151 -0.198208,1.645768 -0.572501,1.857954 -1.133616,0.64263 z m 2.320281,0.23257 c -0.247313,-0.648981 0.228938,-3.000412 0.585239,-2.889542 0.385091,0.119829 0.325498,2.656244 -0.07185,3.056314 -0.249015,0.250751 -0.369193,0.211719 -0.513434,-0.166772 z m -7.285453,-1.248421 c -0.32461,-0.212332 -0.338009,-0.396754 -0.07153,-0.985592 0.403507,-0.891773 1.03172,-1.165101 1.595303,-0.694104 0.677814,0.566447 0.396373,1.782229 -0.432587,1.868723 -0.380487,0.03971 -0.8715,-0.04532 -1.091137,-0.189027 z m 9.39264,-0.422304 c 0,-0.547124 0.62236,-1.550678 0.96166,-1.550678 0.532026,0 0.528618,0.134279 -0.02499,0.985062 -0.387888,0.596124 -0.936678,0.927517 -0.936678,0.565616 z m 71.243075,-8.795425 c 0.11756,-0.383136 0.23051,-0.984464 0.25097,-1.336283 0.0298,-0.512507 0.15764,-0.609244 0.64289,-0.486605 0.33311,0.08419 0.68289,0.02722 0.77729,-0.126599 0.0944,-0.153817 0.33865,-0.279666 0.54275,-0.279666 0.25564,0 0.35818,0.348364 0.32957,1.119737 -0.0399,1.076134 -0.0719,1.113088 -0.82109,0.949005 -0.5468,-0.119754 -0.95223,-0.01731 -1.35785,0.343143 -0.57086,0.507282 -0.57555,0.504936 -0.36453,-0.182732 z M 57.436534,84.860936 c 0.240015,-0.268195 0.521857,-0.832449 0.626314,-1.253898 0.203441,-0.820833 0.683357,-1.052581 0.683357,-0.329987 0,0.536339 -0.529114,1.581486 -0.940755,1.858264 -0.57374,0.385763 -0.805476,0.213416 -0.368916,-0.274379 z m 88.557626,-5.015594 c -0.46731,-0.618139 -0.64893,-0.698937 -0.93951,-0.417966 -0.5721,0.553164 -0.66461,0.427557 -0.66461,-0.902261 0,-1.053701 0.0746,-1.226728 0.4738,-1.099139 0.26058,0.08328 0.73821,0.0089 1.06138,-0.165231 0.76194,-0.410616 0.91231,-0.229937 0.52361,0.629117 -0.24968,0.551788 -0.22345,0.870368 0.12799,1.554715 0.24311,0.473394 0.44202,0.92964 0.44202,1.013877 0,0.382815 -0.49623,0.0859 -1.02468,-0.613112 z M 42.813096,78.565666 c 0.33004,-1.423425 2.398528,-5.764831 3.784525,-7.943099 0.74611,-1.172584 1.356568,-2.308475 1.356589,-2.5242 2e-5,-0.215724 -0.489414,-1.031068 -1.087639,-1.811873 -0.598215,-0.780808 -1.217746,-1.76416 -1.376728,-2.185233 -0.334643,-0.886292 -0.761976,-0.940627 -2.68005,-0.340752 -1.800942,0.563244 -6.423594,1.519754 -7.360643,1.523056 -0.946743,0.0033 -1.282987,-0.498486 -0.442724,-0.660744 2.095719,-0.404688 9.270491,-2.176252 9.566703,-2.362166 0.227442,-0.142761 0.392307,-1.063783 0.45987,-2.569183 0.144209,-3.212961 1.143938,-6.235537 2.295722,-6.940858 0.463029,-0.283542 0.926521,-0.653471 1.029997,-0.822059 0.289481,-0.471657 2.687018,-1.620619 3.833795,-1.837253 0.564006,-0.106545 1.100067,-0.315264 1.191238,-0.46382 0.158382,-0.258036 -0.297337,-3.0178 -1.141276,-6.91147 -0.631227,-2.912282 -0.744582,-3.622373 -0.57825,-3.622373 0.370081,0 1.060974,2.310701 1.541242,5.154715 0.284702,1.685909 0.682996,3.566846 0.885115,4.179863 0.367471,1.114577 0.367471,1.114577 2.877474,1.29265 1.764967,0.125216 2.862918,0.359367 3.698939,0.788847 0.653916,0.335927 1.278145,0.506572 1.387174,0.379215 0.109029,-0.127358 0.479792,-1.234678 0.823902,-2.460712 0.344119,-1.226034 1.065703,-3.294966 1.60353,-4.597628 0.537827,-1.302661 1.385687,-3.353446 1.884132,-4.557297 0.946372,-2.285704 1.512122,-3.164087 1.512122,-2.347719 0,1.173067 -1.060479,4.382306 -2.817229,8.525532 -2.369882,5.58927 -2.494592,6.17773 -1.454624,6.863891 1.532756,1.0113 3.144286,2.729143 3.457903,3.686047 0.313171,0.955518 0.349725,0.975689 1.466887,0.809516 0.630152,-0.09373 2.889034,-0.350743 5.019757,-0.571136 2.130714,-0.220394 4.309037,-0.532052 4.84071,-0.69257 1.914276,-0.577944 3.455983,-0.131428 1.869672,0.541498 -0.771586,0.327311 -3.702036,0.909738 -4.635009,0.921205 -1.080505,0.01329 -7.195365,0.715917 -7.737052,0.88904 -0.383285,0.1225 -0.51777,0.579142 -0.638815,2.169175 -0.09931,1.304432 -0.42183,2.635476 -0.915445,3.777937 -0.76213,1.763932 -0.76213,1.763932 0.0447,2.440056 0.443735,0.37187 2.363317,1.756851 4.265752,3.077738 3.396802,2.358458 5.257617,3.893322 5.257617,4.33667 0,0.461499 -0.556553,0.191936 -1.748524,-0.846899 -0.675812,-0.588984 -2.084261,-1.660196 -3.129896,-2.380472 -1.045625,-0.720275 -2.710534,-1.922061 -3.699795,-2.670639 -0.989263,-0.748577 -1.985452,-1.361076 -2.21374,-1.36111 -0.228288,-3.3e-5 -0.913163,0.607784 -1.521939,1.350708 -1.069098,1.304679 -2.666857,2.296794 -4.842547,3.006936 -1.480213,0.48314 -6.087763,0.769985 -6.087763,0.378997 0,-0.175242 0.217914,-0.319237 0.484252,-0.319983 0.266338,-8.36e-4 -0.363837,-0.439615 -1.400377,-0.975255 -1.036552,-0.535643 -2.117646,-0.973894 -2.40243,-0.973894 -0.694021,0 -1.295808,0.906735 -3.630757,5.470561 -1.087298,2.12521 -2.225033,4.114796 -2.528296,4.421305 -0.551122,0.55702 -0.551297,0.556909 -0.367737,-0.234761 z m 16.406976,-9.417712 c 1.589935,-0.592227 3.125385,-1.941012 5.159642,-4.532366 1.334013,-1.699351 2.339121,-5.800529 1.491941,-6.08765 -0.27312,-0.09257 -0.269652,-0.210253 0.01651,-0.559386 0.880243,-1.074059 -0.550359,-3.706374 -2.787036,-5.128164 -3.114454,-1.979764 -7.550335,-2.995971 -8.174594,-1.872703 -0.198229,0.356684 -0.366572,0.386758 -0.814282,0.145483 -0.4225,-0.227689 -0.908425,-0.201273 -1.932867,0.105071 -1.958364,0.585621 -3.038178,1.425677 -4.386125,3.412254 -1.365178,2.011958 -1.682025,3.594618 -1.397694,6.981626 0.208065,2.478565 0.965933,3.983564 2.745362,5.451826 2.937398,2.423747 6.943407,3.252044 10.079187,2.084009 z m 80.501998,1.422562 c 0.41166,-1.03601 0.41149,-1.163799 -0.002,-1.624144 -0.51466,-0.572661 -0.61972,-1.157053 -0.117,-0.650829 0.42605,0.429021 1.67425,0.431785 2.09843,0.0047 0.48209,-0.485451 0.7855,-0.01176 0.39539,0.617264 -0.46041,0.742349 -0.42033,1.385289 0.12406,1.991045 0.25273,0.281202 0.36365,0.604549 0.24648,0.718551 -0.11717,0.114001 -0.40139,-0.07485 -0.6316,-0.419675 -0.51824,-0.776204 -1.21426,-0.805231 -1.67045,-0.06967 -0.60736,0.979304 -0.90578,0.597277 -0.44307,-0.567197 z m -13.96671,-2.424195 c -0.53495,-0.375052 -0.74493,-0.393451 -1.20298,-0.1054 -0.69911,0.439644 -0.91035,0.244568 -0.52346,-0.483398 0.16453,-0.309559 0.30002,-0.79051 0.30108,-1.068781 0.002,-0.405015 0.24994,-0.517252 1.24521,-0.562632 1.36349,-0.06216 1.39324,-0.03817 0.91283,0.736434 -0.25384,0.4093 -0.25522,0.699176 -0.006,1.250118 0.37165,0.821378 0.19332,0.878714 -0.72676,0.233659 z M 23.800828,65.787599 c -2.307532,-0.564876 -2.480377,-0.571503 -3.399166,-0.130308 -1.258273,0.604206 -1.57096,0.586239 -2.006024,-0.115253 -0.332693,-0.536446 -0.176375,-0.750043 2.077995,-2.83947 5.463896,-5.064118 7.003579,-7.038768 7.003579,-8.982125 0,-2.737252 -2.760888,-3.478559 -5.182322,-1.391467 -0.948921,0.817895 -1.172409,0.905131 -1.451475,0.566539 -0.499086,-0.605552 -0.110289,-1.402982 1.288571,-2.642883 2.01484,-1.785893 4.297496,-2.16 6.456307,-1.058144 2.235232,1.140861 2.96949,3.78928 1.724058,6.218513 -0.66424,1.295611 -3.234177,3.806552 -5.954754,5.818053 -1.023709,0.756898 -1.861289,1.46433 -1.861289,1.572076 0,0.107747 1.000452,0.285078 2.223226,0.394072 2.647213,0.235965 3.587825,-0.06435 4.285118,-1.368169 0.383956,-0.717927 0.62364,-0.882667 1.139686,-0.783331 0.490311,0.09438 0.65309,0.309006 0.651924,0.859579 -0.0021,1.199816 -0.535019,2.772802 -1.203656,3.555555 -0.85265,0.998164 -2.637675,1.098874 -5.791778,0.326763 z M 180.0865,64.892842 c -1.98591,-0.888792 -2.97458,-2.921989 -2.99283,-6.154792 -0.034,-6.008526 2.76387,-10.495145 6.96667,-11.17188 5.26259,-0.847381 7.67366,5.080438 4.99654,12.284403 -0.782,2.104326 -3.15194,4.594652 -4.85174,5.098203 -1.46768,0.434786 -3.07083,0.413012 -4.11864,-0.05593 z m 4.07498,-1.825579 c 1.55964,-1.23536 2.55277,-5.179602 2.38203,-9.460246 -0.12448,-3.120871 -0.63582,-4.268283 -1.97405,-4.429707 -1.06326,-0.128254 -1.66121,0.309944 -2.46817,1.808757 -1.79017,3.325008 -2.12426,10.409679 -0.57231,12.136512 0.5836,0.64936 1.77443,0.624338 2.6325,-0.05532 z m -20.26292,1.26581 c 0,-0.701609 0.0285,-0.714203 2.5574,-1.130144 1.24019,-0.203979 1.1182,0.209825 1.96127,-6.652448 0.64534,-5.252653 0.64534,-5.252653 -0.48391,-5.050388 -1.96825,0.352544 -2.2299,0.315626 -2.32092,-0.327454 -0.0688,-0.486649 0.20256,-0.7318 1.44399,-1.304107 0.84087,-0.387641 2.07561,-1.0836 2.74387,-1.546579 0.98381,-0.681591 1.36725,-0.800736 2.01495,-0.626111 0.93226,0.251349 0.95184,-0.707379 -0.17422,8.532376 -0.54911,4.505609 -0.69512,6.510743 -0.49205,6.75712 0.15881,0.192688 0.74046,0.35226 1.29253,0.354606 1.30633,0.0055 1.71277,0.287486 1.51458,1.050619 -0.15787,0.607863 -0.23336,0.61698 -5.10886,0.61698 -4.94863,0 -4.94863,0 -4.94863,-0.67447 z m -30.15693,-1.409791 c -0.47981,-0.514299 -0.81847,-0.647129 -1.32406,-0.519348 -0.60023,0.151697 -0.65702,0.100807 -0.48754,-0.436906 0.10998,-0.348932 0.0496,-0.781229 -0.14163,-1.013198 -0.1834,-0.222525 -0.28708,-0.409578 -0.2304,-0.415669 0.99747,-0.107187 3.00859,-0.164765 3.00859,-0.08613 0,0.05763 -0.15288,0.351276 -0.33974,0.65256 -0.27824,0.448643 -0.2532,0.695293 0.13836,1.362771 0.79656,1.357866 0.45256,1.609387 -0.62358,0.455923 z m 10.39451,-1.241644 c -1.06603,-0.207507 -1.17631,-0.667617 -0.29878,-1.246596 0.68294,-0.450597 0.7096,-0.566706 0.63282,-2.755569 -0.0801,-2.285153 -0.0801,-2.285153 -1.09614,-2.370332 -0.8568,-0.07183 -1.06325,-0.221714 -1.31766,-0.956582 -0.26574,-0.767606 -0.22223,-0.956607 0.36516,-1.586686 0.9361,-1.004111 1.82788,-2.566755 1.82911,-3.20512 5.4e-4,-0.296631 -0.26425,-0.82367 -0.58847,-1.171198 -0.52674,-0.564583 -0.59304,-0.975578 -0.62263,-3.859508 -0.0249,-2.43341 -0.12815,-3.286775 -0.41932,-3.467969 -0.56396,-0.350935 -0.15256,-1.132507 0.59611,-1.132507 2.3907,0 8.40031,2.658475 10.17703,4.502011 1.4088,1.461779 2.32387,4.251962 2.15155,6.560412 -0.16813,2.252623 -1.38625,4.852141 -2.82032,6.018666 -3.91672,3.186019 -7.15877,4.949271 -8.58846,4.670978 z m 4.88107,-3.557213 c 1.89254,-1.383008 3.41493,-3.241703 4.55092,-5.556242 0.8875,-1.80823 0.97594,-2.182365 0.81132,-3.431992 -0.26416,-2.005216 -1.08167,-3.737704 -2.14859,-4.553352 -1.28975,-0.985994 -4.81839,-2.860536 -6.38665,-3.392824 -0.98511,-0.334359 -1.45195,-0.370755 -1.86946,-0.145755 -0.52632,0.283639 -0.53276,0.346058 -0.11889,1.151973 0.32158,0.626194 0.41371,1.454391 0.34752,3.124068 -0.09,2.271983 -0.09,2.271983 0.80926,2.670575 0.49463,0.219224 0.89933,0.582061 0.89933,0.8063 0,0.224241 -0.62261,1.449417 -1.38358,2.722614 -0.76097,1.273195 -1.38358,2.383692 -1.38358,2.467767 0,0.08407 0.36338,0.152864 0.80751,0.152864 1.59548,0 1.68293,0.137896 1.68293,2.653713 0,1.566222 0.10855,2.351875 0.33546,2.428037 0.67809,0.227605 1.77247,-0.166735 3.0465,-1.097746 z m -23.70504,1.606228 c -0.38952,-0.433406 -0.62395,-0.486847 -1.18814,-0.270851 -0.89802,0.343811 -1.06619,0.164607 -0.54657,-0.582436 0.227,-0.326334 0.3442,-0.857151 0.26046,-1.179595 -0.12751,-0.491024 -0.0663,-0.549882 0.37649,-0.362321 0.2908,0.123169 0.95241,0.301192 1.47023,0.395611 0.85423,0.155756 0.89798,0.208039 0.47194,0.564067 -0.33372,0.278901 -0.41959,0.62134 -0.29689,1.183931 0.20363,0.933573 0.1058,0.978532 -0.54752,0.251594 z M 44.772008,51.698019 c -0.152199,-0.112594 -0.459735,-0.455496 -0.683419,-0.762005 -0.300331,-0.411532 -0.209862,-0.380611 0.345895,0.118232 0.677287,0.607929 0.883392,0.865089 0.68342,0.852757 -0.0381,-0.0022 -0.193707,-0.09639 -0.345896,-0.208984 z m 42.191015,-2.310138 c -0.218771,-0.411635 -0.171513,-0.958496 0.185728,-2.149117 0.26354,-0.878343 0.577249,-1.712854 0.697117,-1.854466 0.231003,-0.27291 1.41006,0.847981 1.704372,1.620302 0.273626,0.718007 1.108583,0.523266 2.352158,-0.548604 1.813422,-1.563031 1.423944,-3.049509 -1.01252,-3.864409 -2.880539,-0.963426 -4.289742,-4.057312 -2.69669,-5.920547 0.612904,-0.716862 0.825543,-0.781084 2.559625,-0.773092 1.523651,0.0071 1.974137,-0.0933 2.317989,-0.516236 0.392585,-0.482885 0.456865,-0.488457 0.802141,-0.06954 0.460427,0.558651 0.07804,2.080995 -0.880966,3.507405 -0.812464,1.208418 -1.200817,1.089025 -1.085945,-0.333846 0.05936,-0.734857 -0.03933,-1.225688 -0.276723,-1.377244 -0.592909,-0.378468 -1.716388,-0.280187 -2.412918,0.21108 -0.532397,0.375503 -0.617962,0.624285 -0.489289,1.422692 0.243638,1.511842 0.809161,2.119752 2.5134,2.701786 2.084302,0.71183 2.925443,1.706816 2.925443,3.460496 0,1.506085 -0.490383,2.357181 -1.730108,3.002735 -1.599235,0.832759 -2.47761,0.973361 -3.015963,0.482765 -0.642541,-0.585542 -1.341692,-0.295343 -1.341692,0.556904 0,0.876879 -0.730047,1.165538 -1.115159,0.440932 z M 41.281187,48.897307 c -0.36296,-0.278392 -1.634694,-1.12151 -2.826087,-1.873599 -2.296642,-1.449807 -2.516104,-2.095744 -0.267515,-0.787347 1.353833,0.787757 4.232328,2.869789 4.232328,3.061267 0,0.253272 -0.529094,0.06726 -1.138726,-0.400321 z m 38.082726,-2.535709 c -0.21171,-2.122782 0.06927,-6.153383 0.428942,-6.153383 0.125329,0 0.307299,0.1294 0.404364,0.287555 0.241821,0.394009 -0.166248,7.793125 -0.4298,7.793125 -0.116213,0 -0.297791,-0.867283 -0.403506,-1.927297 z M 75.682058,47.1031 c -0.604729,-0.733726 -0.669949,-1.829706 -0.160551,-2.69805 0.599609,-1.022125 0.920782,-1.061082 1.716482,-0.208197 0.715936,0.767383 0.746626,1.206036 0.16633,2.377367 -0.451776,0.91191 -1.213731,1.145893 -1.722261,0.52888 z m 5.171513,-0.807098 c -0.62109,-0.87832 -0.62109,-0.87832 -0.08806,-1.880848 0.381943,-0.718306 0.748814,-1.027528 1.294042,-1.0907 0.73747,-0.08544 0.760975,-0.04649 0.760975,1.261559 0,1.279439 -0.558142,2.588306 -1.103721,2.588306 -0.133195,0 -0.521672,-0.395243 -0.863274,-0.878317 z m -7.588137,-0.445243 c -0.09445,-0.574704 -0.297358,-1.378361 -0.450785,-1.785906 -0.199054,-0.528744 -0.182352,-0.922746 0.05832,-1.375526 0.297482,-0.559724 0.251277,-0.703557 -0.391905,-1.219985 -0.401028,-0.321998 -0.729138,-0.674784 -0.729138,-0.783966 0,-0.307731 2.737723,-0.233988 3.338788,0.08993 0.782146,0.421508 0.654454,1.442794 -0.294912,2.358673 -0.718423,0.693085 -0.830147,1.000117 -0.830147,2.281284 0,1.703265 -0.446088,1.980717 -0.700183,0.435496 z M 52.658432,35.07544 c 0,-0.701609 0.02849,-0.714204 2.557406,-1.130144 1.240178,-0.203979 1.118182,0.209825 1.961274,-6.652448 0.645328,-5.252653 0.645328,-5.252653 -0.48391,-5.050389 -1.968254,0.352545 -2.229916,0.315628 -2.320932,-0.327454 -0.06885,-0.486648 0.202564,-0.731799 1.444001,-1.304108 0.840863,-0.38764 2.075601,-1.083599 2.743856,-1.546577 0.983812,-0.681592 1.367241,-0.800738 2.014954,-0.626109 0.93226,0.251348 0.951842,-0.707381 -0.174218,8.532375 -0.549099,4.505608 -0.695115,6.510742 -0.492055,6.757119 0.158805,0.192688 0.740452,0.35226 1.292545,0.354606 1.306316,0.0055 1.712744,0.287486 1.514568,1.050619 -0.157867,0.607863 -0.233367,0.61698 -5.108855,0.61698 -4.948634,0 -4.948634,0 -4.948634,-0.67447 z m 80.801288,-0.557288 c 0,-0.701609 0.0285,-0.714204 2.55739,-1.130145 1.2402,-0.203978 1.1182,0.209825 1.96128,-6.652446 0.64534,-5.252654 0.64534,-5.252654 -0.48391,-5.050389 -1.96825,0.352543 -2.2299,0.315627 -2.32093,-0.327455 -0.0688,-0.486648 0.20257,-0.7318 1.44401,-1.304108 0.84087,-0.38764 2.0756,-1.0836 2.74386,-1.546578 0.9838,-0.681592 1.36724,-0.800737 2.01494,-0.626108 0.93227,0.251347 0.95185,-0.707382 -0.17421,8.532376 -0.54911,4.505606 -0.69511,6.510741 -0.49205,6.757119 0.1588,0.192688 0.74045,0.352258 1.29254,0.354604 1.30632,0.0055 1.71275,0.287486 1.51456,1.05062 -0.15786,0.607862 -0.23336,0.616979 -5.10885,0.616979 -4.94863,0 -4.94863,0 -4.94863,-0.674469 z m 13.00568,0 c 0,-0.701609 0.0285,-0.714204 2.55741,-1.130145 1.24018,-0.203978 1.11818,0.209825 1.96128,-6.652446 0.64532,-5.252654 0.64532,-5.252654 -0.48391,-5.050389 -1.96826,0.352543 -2.22992,0.315627 -2.32094,-0.327455 -0.0688,-0.486648 0.20256,-0.7318 1.44401,-1.304108 0.84086,-0.38764 2.0756,-1.0836 2.74385,-1.546578 0.98381,-0.681592 1.36724,-0.800737 2.01495,-0.626108 0.93227,0.251347 0.95185,-0.707382 -0.17422,8.532376 -0.54909,4.505606 -0.6951,6.510741 -0.49205,6.757119 0.15881,0.192688 0.74045,0.352258 1.29255,0.354604 1.30631,0.0055 1.71274,0.287486 1.51456,1.05062 -0.15786,0.607862 -0.23336,0.616979 -5.10885,0.616979 -4.94864,0 -4.94864,0 -4.94864,-0.674469 z m -38.81939,-8.576663 c -2.30754,-0.564877 -2.48037,-0.571502 -3.39917,-0.130309 -1.25827,0.604207 -1.57096,0.586241 -2.00602,-0.115253 -0.3327,-0.536444 -0.17638,-0.750043 2.07799,-2.839469 5.4639,-5.064117 7.00358,-7.038769 7.00358,-8.982123 0,-2.737254 -2.76089,-3.47856 -5.18231,-1.39147 -0.94892,0.817898 -1.17241,0.905131 -1.45148,0.56654 -0.49909,-0.605553 -0.1103,-1.402981 1.28857,-2.642884 2.01484,-1.7858902 4.29748,-2.1599997 6.4563,-1.0581425 2.23523,1.1408605 2.96949,3.7892785 1.72407,6.2185135 -0.66424,1.295611 -3.23418,3.806551 -5.95476,5.818052 -1.02371,0.756896 -1.86128,1.46433 -1.86128,1.572076 0,0.107745 1.00044,0.285078 2.22321,0.394072 2.64722,0.235965 3.58783,-0.06435 4.28513,-1.368169 0.38395,-0.717928 0.62363,-0.882666 1.13968,-0.78333 0.4903,0.09438 0.65309,0.309005 0.65193,0.859577 -0.002,1.199817 -0.53504,2.772802 -1.20367,3.555555 -0.85265,0.998165 -2.63768,1.098874 -5.79177,0.326764 z M 90.015198,25.601538 c 0,-0.701608 0.02849,-0.714202 2.557396,-1.130142 1.240188,-0.203979 1.118194,0.209824 1.961275,-6.652447 0.645329,-5.252654 0.645329,-5.252654 -0.483911,-5.050389 -1.968254,0.352543 -2.229905,0.315627 -2.320932,-0.327455 -0.06885,-0.486648 0.202565,-0.7318 1.444002,-1.304108 0.840862,-0.38764 2.0756,-1.0836 2.743865,-1.5465775 0.983802,-0.6815923 1.367242,-0.8007371 2.014944,-0.6261086 0.932271,0.2513473 0.951843,-0.7073814 -0.174217,8.5323761 -0.5491,4.505607 -0.695115,6.510742 -0.492056,6.75712 0.158816,0.192686 0.740463,0.352257 1.292556,0.354605 1.306311,0.0055 1.71274,0.287484 1.51456,1.050617 -0.157859,0.607862 -0.233364,0.61698 -5.108857,0.61698 -4.948625,0 -4.948625,0 -4.948625,-0.674471 z"
         id="path295" /></g></g></svg>
